<svg xmlns="http://www.w3.org/2000/svg" width="1024" height="1024"><path d="M933.248 335.104c-40-10.496-134.048-10.368-271.616-14.016 6.496-30.016 8-57.088 8-105.152C669.632 101.12 585.984 0 512 0c-52.256 0-95.328 42.72-96 95.264-.704 64.448-20.64 175.744-128 232.192-7.872 4.16-30.4 15.264-33.696 16.704L256 345.6c-16.8-14.496-40.096-25.6-64-25.6H96c-52.928 0-96 43.072-96 96v512c0 52.928 43.072 96 96 96h96c38.08 0 69.952-23.008 85.376-55.264.384.128 1.056.32 1.504.384 2.112.576 4.608 1.184 7.648 1.984.576.16.864.224 1.472.384 18.432 4.576 53.92 13.056 129.76 30.496 16.256 3.712 102.144 22.016 191.104 22.016h174.944c53.312 0 91.744-20.512 114.624-61.696.32-.64 7.68-15.008 13.696-34.432 4.512-14.624 6.176-35.328.736-56.32 34.368-23.616 45.44-59.328 52.64-82.56 12.064-38.112 8.448-66.752.064-87.264 19.328-18.24 35.808-46.048 42.752-88.512 4.32-26.304-.32-53.376-12.448-75.904 18.112-20.352 26.368-45.952 27.328-69.632l.384-6.688c.224-4.192.416-6.784.416-16 0-40.416-28-91.968-90.752-109.888zM224 928c0 17.696-14.304 32-32 32H96c-17.696 0-32-14.304-32-32V416c0-17.696 14.304-32 32-32h96c17.696 0 32 14.304 32 32v512zm735.264-462.88C958.624 480.928 952 512 896 512h-64c-8.864 0-16 7.168-16 16s7.136 16 16 16h62.016c48 0 54.304 39.808 51.2 59.008C941.248 626.88 930.048 672 876 672h-76c-8.864 0-16 7.136-16 16 0 8.8 7.136 16 16 16h63.008c54.016 0 49.248 41.184 41.504 65.76C894.304 802.048 888.064 832 820 832h-52.192c-8.864 0-16 7.136-16 16 0 8.8 7.136 16 16 16h50.176c35.008 0 36.64 33.12 32.992 44.992-4 12.992-8.736 22.624-8.928 23.072C832.384 949.504 816.8 960 783.808 960H608.864c-87.872 0-175.04-19.936-177.28-20.448-132.928-30.624-139.936-32.992-148.288-35.36 0 0-27.072-4.576-27.072-28.192L256 434.016c0-15.008 9.568-28.576 25.408-33.344 1.984-.768 4.672-1.6 6.592-2.4C434.176 337.728 478.688 204.992 480 96c.192-15.328 12-32 32-32 33.824 0 93.632 67.904 93.632 151.936 0 75.872-3.072 88.992-29.632 168.064 320 0 317.76 4.608 345.984 12C956.992 406.016 960 435.008 960 444.992c0 10.976-.32 9.376-.736 20.128zM144 832c-26.496 0-48 21.504-48 48s21.504 48 48 48 48-21.504 48-48-21.504-48-48-48zm0 64c-8.8 0-16-7.2-16-16s7.2-16 16-16 16 7.2 16 16-7.2 16-16 16z"/></svg>